<?xml version="1.0"?>
<svg xmlns="http://www.w3.org/2000/svg" xmlns:xlink="http://www.w3.org/1999/xlink" xmlns:svgjs="http://svgjs.com/svgjs" version="1.1" width="512" height="512" x="0" y="0" viewBox="0 0 64 64" style="enable-background:new 0 0 512 512" xml:space="preserve" class=""><g><path xmlns="http://www.w3.org/2000/svg" d="m53 9v46a6 6 0 0 1 -6 6h4a6 6 0 0 0 6-6v-46a6 6 0 0 0 -6-6h-4a6 6 0 0 1 6 6z" fill="#ffffff" data-original="#9bc9ff" style=""/><path xmlns="http://www.w3.org/2000/svg" d="m47 16-24 4v6l24-4z" fill="#ffffff" data-original="#9bc9ff" style=""/><circle xmlns="http://www.w3.org/2000/svg" cx="43" cy="40" fill="#ffffff" r="4" data-original="#9bc9ff" style=""/><circle xmlns="http://www.w3.org/2000/svg" cx="19" cy="44" fill="#ffffff" r="4" data-original="#9bc9ff" style=""/><path xmlns="http://www.w3.org/2000/svg" d="m3 3h6v58h-6z" fill="#ffffff" data-original="#9bc9ff" style=""/><g xmlns="http://www.w3.org/2000/svg" fill="#57a4ff"><path d="m55 2h-52a1 1 0 0 0 -1 1v58a1 1 0 0 0 1 1h52a7.008 7.008 0 0 0 7-7v-46a7.008 7.008 0 0 0 -7-7zm-3.009 57.9a6.974 6.974 0 0 0 2.009-4.9v-46a6.974 6.974 0 0 0 -2.009-4.9 5.008 5.008 0 0 1 4.009 4.9v46a5.008 5.008 0 0 1 -4.009 4.9zm-47.991-55.9h4v56h-4zm6 56v-56h37a5.006 5.006 0 0 1 5 5v46a5.006 5.006 0 0 1 -5 5zm50-5a5.008 5.008 0 0 1 -4.009 4.9 6.974 6.974 0 0 0 2.009-4.9v-46a6.974 6.974 0 0 0 -2.009-4.9 5.008 5.008 0 0 1 4.009 4.9z" fill="#ffffff" data-original="#57a4ff" style="" class=""/><path d="m46.835 15.014-24 4a1 1 0 0 0 -.835.986v20.026a4.948 4.948 0 0 0 -3-1.026 5 5 0 1 0 5 5v-17.153l22-3.667v12.846a4.948 4.948 0 0 0 -3-1.026 5 5 0 1 0 5 5v-24a1 1 0 0 0 -1.165-.986zm-27.835 31.986a3 3 0 1 1 3-3 3 3 0 0 1 -3 3zm5-22.18v-3.973l22-3.666v3.972zm19 18.18a3 3 0 1 1 3-3 3 3 0 0 1 -3 3z" fill="#ffffff" data-original="#57a4ff" style="" class=""/><path d="m14 8h4v2h-4z" fill="#ffffff" data-original="#57a4ff" style="" class=""/><path d="m20 8h28v2h-28z" fill="#ffffff" data-original="#57a4ff" style="" class=""/><path d="m14 54h4v2h-4z" fill="#ffffff" data-original="#57a4ff" style="" class=""/><path d="m20 54h28v2h-28z" fill="#ffffff" data-original="#57a4ff" style="" class=""/></g></g></svg>
